<?xml version="1.0" encoding="utf-8"?>
<svg viewBox="-18 0 1046.737 783.653" width="122px" height="91.337px" xmlns="http://www.w3.org/2000/svg">
  <defs>
    <style>@import url(https://fonts.googleapis.com/css2?family=Actor%3Aital%2Cwght%400%2C400&amp;display=swap);</style>
  </defs>
  <g style="" transform="matrix(-1.518589, 1.518589, -1.518589, -1.518589, 1009.827225, 272.869755)">
    <g transform="matrix(1, 0, 0, 1, 0.023994, -100.010498)">
      <g>
        <g>
          <path style="stroke: rgb(0, 0, 0); fill: rgb(152, 228, 230);" d="M 175.349 306.499 C 175.245 315.342 324.218 314.486 324.727 306.806 L 324.727 393.482 C 324.589 386.019 174.353 384.889 174.727 393.482 L 175.349 306.499 Z"/>
          <path d="M 150.012 349.988 m -49.988 0 a 49.988 49.988 0 1 0 99.976 0 a 49.988 49.988 0 1 0 -99.976 0 Z M 150.012 349.988 m -24.994 0 a 24.994 24.994 0 0 1 49.988 0 a 24.994 24.994 0 0 1 -49.988 0 Z" style="stroke: rgb(0, 0, 0); fill: rgb(152, 228, 230);"/>
          <path d="M 349.988 349.988 m -49.988 0 a 49.988 49.988 0 1 0 99.976 0 a 49.988 49.988 0 1 0 -99.976 0 Z M 349.988 349.988 m -24.994 0 a 24.994 24.994 0 0 1 49.988 0 a 24.994 24.994 0 0 1 -49.988 0 Z" style="stroke: rgb(0, 0, 0); fill: rgb(152, 228, 230);"/>
        </g>
      </g>
    </g>
  </g>
  <g style="" transform="matrix(1.859884, 1.073808, -1.073808, 1.859884, 89.022165, -201.105197)">
    <g transform="matrix(1, 0, 0, 1, 0.023994, -100.010498)">
      <g>
        <g>
          <path style="stroke: rgb(0, 0, 0); fill: rgb(87, 191, 181);" d="M 175.349 306.499 C 175.245 315.342 324.218 314.486 324.727 306.806 L 324.727 393.482 C 324.589 386.019 174.353 384.889 174.727 393.482 L 175.349 306.499 Z"/>
          <path d="M 150.012 349.988 m -49.988 0 a 49.988 49.988 0 1 0 99.976 0 a 49.988 49.988 0 1 0 -99.976 0 Z M 150.012 349.988 m -24.994 0 a 24.994 24.994 0 0 1 49.988 0 a 24.994 24.994 0 0 1 -49.988 0 Z" style="stroke: rgb(0, 0, 0); fill: rgb(87, 191, 181);"/>
          <path d="M 349.988 349.988 m -49.988 0 a 49.988 49.988 0 1 0 99.976 0 a 49.988 49.988 0 1 0 -99.976 0 Z M 349.988 349.988 m -24.994 0 a 24.994 24.994 0 0 1 49.988 0 a 24.994 24.994 0 0 1 -49.988 0 Z" style="stroke: rgb(0, 0, 0); fill: rgb(87, 191, 181);"/>
          <circle style="stroke-opacity: 0; stroke: rgb(181, 93, 93); fill: rgb(181, 166, 166);" transform="matrix(0.866026, -0.5, 0.5, 0.866026, -561.796078, 113.683271)" cx="497.6" cy="560" r="12.909"/>
          <circle style="stroke-opacity: 0; stroke: rgb(181, 93, 93); fill: rgb(181, 166, 166);" transform="matrix(0.866026, -0.5, 0.5, 0.866026, -510.158932, -79.034319)" cx="497.6" cy="560" r="12.909"/>
          <circle style="stroke-opacity: 0; stroke: rgb(181, 93, 93); fill: rgb(181, 166, 166);" transform="matrix(0.866026, -0.5, 0.5, 0.866026, -361.499203, 112.676626)" cx="497.6" cy="560" r="12.909"/>
        </g>
      </g>
    </g>
  </g>
  <text style="fill: rgb(51, 51, 51); font-family: Actor; font-size: 80.7px; white-space: pre;" transform="matrix(2.592605, 0, 0, 2.977554, -901.397535, -607.634286)" x="552.111" y="350.772">Alloy</text>
</svg>